<?xml version="1.0" encoding="UTF-8" standalone="no"?>
<!DOCTYPE svg PUBLIC "-//W3C//DTD SVG 1.1//EN" "http://www.w3.org/Graphics/SVG/1.1/DTD/svg11.dtd">
<svg width="100%" height="100%" viewBox="0 0 448 512" version="1.1" xmlns="http://www.w3.org/2000/svg" xmlns:xlink="http://www.w3.org/1999/xlink" xml:space="preserve" xmlns:serif="http://www.serif.com/" style="fill-rule:evenodd;clip-rule:evenodd;stroke-linejoin:round;stroke-miterlimit:2;">
    <g transform="matrix(1,0,0,1,112.082,0.0468927)">
        <path d="M221.6,148.7C224.7,161.3 224.8,174.5 222.1,187.2C219.3,199.1 213.6,211.9 205.6,222.1C191.1,238.6 173,249.1 151.1,254.1L151.1,472C151.1,482.6 147.8,492.8 140.3,500.3C132.8,507.8 122.6,512 111.1,512C101.4,512 91.22,507.8 83.71,500.3C76.21,492.8 71.1,482.6 71.1,472L71.1,254.1C50.96,250.1 31.96,238.9 18.3,222.4C10.19,212.2 4.529,200.3 1.755,187.5C-1.019,174.7 -0.832,161.5 2.303,148.8L32.51,12.45C33.36,8.598 35.61,5.197 38.82,2.9C42.02,0.602 45.97,-0.43 49.89,0.003C53.82,0.43 57.46,2.303 60.1,5.259C62.74,8.214 64.18,12.04 64.16,16L64.16,160L81.53,160L98.62,11.91C99.02,8.635 100.6,5.621 103.1,3.434C105.5,1.248 108.7,0.04 111.1,0.04C115.3,0.04 118.5,1.248 120.9,3.434C123.4,5.621 124.1,8.635 125.4,11.91L142.5,160L159.1,160L159.1,16C159.1,12.07 161.4,8.268 163.1,5.317C166.6,2.366 170.2,0.474 174.1,0.003C178,-0.426 181.1,0.619 185.2,2.936C188.4,5.253 190.6,8.677 191.5,12.55L221.6,148.7Z" style="fill-rule:nonzero;"/>
    </g>
</svg>
